<svg xmlns="http://www.w3.org/2000/svg" width="1200" height="630" viewBox="0 0 1200 630" role="img">
<title>MiMoCode theme preview: desert sunset with terminal</title>
<desc>Warm-black sky with orange sun over dunes, a code terminal in theme colors, and palette swatches.</desc>
<defs>
<radialGradient id="glow" cx="50%" cy="50%" r="50%">
<stop offset="0%" stop-color="#FF6A00" stop-opacity="0.55"/>
<stop offset="100%" stop-color="#FF6A00" stop-opacity="0"/>
</radialGradient>
<linearGradient id="sky" x1="0" y1="0" x2="0" y2="1">
<stop offset="0%" stop-color="#0a0a0a"/>
<stop offset="100%" stop-color="#1e1e1e"/>
</linearGradient>
</defs>
<rect x="0" y="0" width="1200" height="630" fill="url(#sky)"/>
<g fill="#eeeeee">
<circle cx="80" cy="60" r="2" opacity="0.8"/>
<circle cx="180" cy="120" r="1.5" opacity="0.5"/>
<circle cx="280" cy="50" r="2" opacity="0.7"/>
<circle cx="380" cy="90" r="1.2" opacity="0.45"/>
<circle cx="480" cy="45" r="1.8" opacity="0.7"/>
<circle cx="700" cy="70" r="1.6" opacity="0.55"/>
<circle cx="820" cy="45" r="2" opacity="0.75"/>
<circle cx="930" cy="100" r="1.4" opacity="0.5"/>
<circle cx="1040" cy="55" r="2" opacity="0.8"/>
<circle cx="1130" cy="130" r="1.5" opacity="0.5"/>
<circle cx="980" cy="160" r="1.2" opacity="0.4"/>
<circle cx="760" cy="130" r="1.2" opacity="0.4"/>
<circle cx="150" cy="200" r="1.3" opacity="0.4"/>
<circle cx="1090" cy="220" r="1.6" opacity="0.5"/>
</g>
<circle cx="600" cy="330" r="210" fill="url(#glow)"/>
<circle cx="600" cy="330" r="125" fill="#FF6A00"/>
<circle cx="600" cy="330" r="125" fill="none" stroke="#FF8A3C" stroke-width="3" opacity="0.8"/>
<circle cx="565" cy="295" r="34" fill="#FF8A3C" opacity="0.55"/>
<g stroke="#606060" stroke-width="2.5" fill="none" stroke-linecap="round">
<path d="M 250 150 q 10 -8 20 0 q 10 -8 20 0"/>
<path d="M 900 120 q 8 -7 16 0 q 8 -7 16 0"/>
<path d="M 960 175 q 7 -6 14 0 q 7 -6 14 0"/>
</g>
<path d="M0 452 Q 300 396 600 444 T 1200 428 L1200 630 L0 630 Z" fill="#282828"/>
<path d="M0 502 Q 350 458 700 498 T 1200 488 L1200 630 L0 630 Z" fill="#1e1e1e"/>
<path d="M0 562 Q 400 530 800 556 T 1200 550 L1200 630 L0 630 Z" fill="#141414"/>
<g>
<rect x="70" y="105" width="540" height="410" rx="16" fill="#141414" stroke="#484848" stroke-width="1.5"/>
<circle cx="102" cy="137" r="7" fill="#FB7185"/>
<circle cx="126" cy="137" r="7" fill="#FBBF24"/>
<circle cx="150" cy="137" r="7" fill="#FF6A00"/>
<text x="178" y="138" font-family="monospace" font-size="16" fill="#808080">mimocode — opencode</text>
<line x1="70" y1="160" x2="610" y2="160" stroke="#323232" stroke-width="1"/>
<text x="100" y="198" font-family="monospace" font-size="19" fill="#808080">// warm welcome to MiMoCode</text>
<text x="100" y="234" font-family="monospace" font-size="19"><tspan fill="#818CF8">func</tspan><tspan fill="#eeeeee"> deploy</tspan><tspan fill="#FF8A3C">(</tspan><tspan fill="#FB7185">env</tspan><tspan fill="#FF8A3C">:</tspan><tspan fill="#eeeeee"> </tspan><tspan fill="#e5c07b">Production</tspan><tspan fill="#FF8A3C">)</tspan><tspan fill="#eeeeee"> {</tspan></text>
<text x="100" y="270" font-family="monospace" font-size="19"><tspan fill="#eeeeee">  theme</tspan><tspan fill="#FF8A3C">.</tspan><tspan fill="#FF6A00">set</tspan><tspan fill="#FF8A3C">(</tspan><tspan fill="#FF6A00">"mimocode"</tspan><tspan fill="#FF8A3C">)</tspan></text>
<text x="100" y="306" font-family="monospace" font-size="19"><tspan fill="#818CF8">  if</tspan><tspan fill="#eeeeee"> sunset</tspan><tspan fill="#FF8A3C"> == </tspan><tspan fill="#FBBF24">true</tspan><tspan fill="#eeeeee"> {</tspan></text>
<text x="100" y="342" font-family="monospace" font-size="19"><tspan fill="#eeeeee">    glow</tspan><tspan fill="#FF8A3C">(</tspan><tspan fill="#FBBF24">0.55</tspan><tspan fill="#FF8A3C">)</tspan><tspan fill="#808080">  // ember light</tspan></text>
<text x="100" y="378" font-family="monospace" font-size="19"><tspan fill="#eeeeee">  }</tspan></text>
<text x="100" y="414" font-family="monospace" font-size="19"><tspan fill="#eeeeee">}</tspan></text>
<text x="100" y="458" font-family="monospace" font-size="19"><tspan fill="#FF6A00">$</tspan><tspan fill="#eeeeee"> opencode run</tspan><tspan fill="#808080">  --theme mimocode</tspan><tspan fill="#FF6A00"> ▊</tspan></text>
<rect x="100" y="476" width="150" height="10" rx="5" fill="#323232"/>
<rect x="100" y="476" width="102" height="10" rx="5" fill="#FF6A00"/>
</g>
<g>
<text x="660" y="190" font-family="sans-serif" font-size="92" font-weight="800" fill="#FF6A00">MiMoCode</text>
<text x="662" y="232" font-family="sans-serif" font-size="27" fill="#eeeeee">Warm dark / light for OpenCode</text>
<text x="662" y="264" font-family="sans-serif" font-size="21" fill="#808080">signature orange accents</text>
<g>
<rect x="660" y="292" width="76" height="76" rx="14" fill="#FF6A00"/>
<rect x="748" y="292" width="76" height="76" rx="14" fill="#FF8A3C"/>
<rect x="836" y="292" width="76" height="76" rx="14" fill="#818CF8"/>
<rect x="924" y="292" width="76" height="76" rx="14" fill="#FB7185"/>
<rect x="1012" y="292" width="76" height="76" rx="14" fill="#FBBF24"/>
<text x="660" y="388" font-family="monospace" font-size="15" fill="#808080">#FF6A00  #FF8A3C  #818CF8</text>
<text x="924" y="388" font-family="monospace" font-size="15" fill="#808080">#FB7185  #FBBF24</text>
</g>
<rect x="660" y="412" width="428" height="96" rx="14" fill="#ffffff"/>
<rect x="660" y="412" width="428" height="96" rx="14" fill="none" stroke="#484848" stroke-width="1"/>
<circle cx="692" cy="444" r="12" fill="#C45200"/>
<text x="714" y="446" font-family="sans-serif" font-size="22" font-weight="700" fill="#1a1a1a">MiMoCode Light</text>
<text x="714" y="474" font-family="sans-serif" font-size="17" fill="#8a8a8a">warm cream, same ember accent</text>
<text x="990" y="474" font-family="monospace" font-size="15" fill="#C45200">#C45200</text>
<text x="662" y="548" font-family="monospace" font-size="18" fill="#606060">github.com/jadmadi/opencode-MiMoCode-Theme</text>
</g>
</svg>
